<?xml version="1.0" standalone="no"?>
<!DOCTYPE svg PUBLIC "-//W3C//DTD SVG 20010904//EN"
 "http://www.w3.org/TR/2001/REC-SVG-20010904/DTD/svg10.dtd">
<svg version="1.0" xmlns="http://www.w3.org/2000/svg"
 width="64.000000pt" height="64.000000pt" viewBox="0 0 64.000000 64.000000"
 preserveAspectRatio="xMidYMid meet">

<g transform="translate(0.000000,64.000000) scale(0.100000,-0.100000)"
fill="#000000" stroke="none">
<path d="M122 548 c-17 -17 -17 -449 0 -466 9 -9 68 -12 205 -12 183 0 193 1
193 19 0 18 -13 19 -185 26 -102 4 -185 11 -185 15 0 4 66 10 148 14 81 4 163
10 182 14 l35 8 3 197 2 197 -150 0 -150 0 0 -40 c0 -22 -2 -40 -4 -40 -2 0
-11 -3 -20 -6 -13 -5 -16 2 -16 40 0 41 -2 46 -23 46 -13 0 -28 -5 -35 -12z
m298 -132 c0 -14 -67 -26 -157 -26 -40 0 -53 4 -53 15 0 11 17 15 73 18 39 1
87 4 105 5 21 1 32 -3 32 -12z m-40 -71 c0 -12 -14 -15 -65 -15 -51 0 -65 3
-65 15 0 12 14 15 65 15 51 0 65 -3 65 -15z"/>
</g>
</svg>
