<?xml version="1.0" standalone="no"?>
<!DOCTYPE svg PUBLIC "-//W3C//DTD SVG 20010904//EN"
 "http://www.w3.org/TR/2001/REC-SVG-20010904/DTD/svg10.dtd">
<svg version="1.0" xmlns="http://www.w3.org/2000/svg"
 width="50.000000pt" height="50.000000pt" viewBox="0 0 50.000000 50.000000"
 preserveAspectRatio="xMidYMid meet">

<g transform="translate(0.000000,50.000000) scale(0.100000,-0.100000)"
fill="#000000" stroke="none">
<path d="M122 414 c-19 -13 -22 -24 -22 -82 1 -43 6 -74 15 -86 8 -11 15 -33
15 -48 0 -24 -7 -32 -37 -44 -44 -18 -83 -52 -83 -71 0 -10 24 -13 100 -13 84
0 100 3 100 15 0 9 11 27 24 40 24 24 24 25 5 35 -23 13 -25 56 -5 85 12 18
21 88 17 137 -1 20 -50 48 -83 48 -13 0 -34 -7 -46 -16z"/>
<path d="M315 333 c-17 -16 -17 -71 0 -149 6 -29 4 -33 -36 -55 -24 -14 -45
-32 -47 -42 -3 -15 9 -17 128 -17 119 0 131 2 128 17 -2 10 -23 28 -47 42 -40
22 -42 26 -36 55 4 17 9 54 12 82 4 46 2 54 -18 68 -30 21 -63 20 -84 -1z"/>
</g>
</svg>
